<svg width="41" height="40" viewBox="0 0 41 40" fill="none" xmlns="http://www.w3.org/2000/svg">
<circle cx="20.5" cy="20" r="19" stroke="url(#paint0_linear_23703_6958)" stroke-width="2"/>
<path d="M23.8085 22.1867L21.6676 24.297C20.5515 23.6236 19.5147 22.8266 18.5767 21.9213C17.6732 20.982 16.8768 19.9452 16.2022 18.83L18.3104 16.6888C18.437 16.5593 18.5225 16.3953 18.5562 16.2173C18.5898 16.0394 18.5701 15.8554 18.4995 15.6887L16.3022 10.5553C16.2156 10.3536 16.0596 10.1897 15.8624 10.0933C15.6652 9.99684 15.4401 9.97431 15.2277 10.0298L11.1878 11.0963C10.9859 11.1481 10.8078 11.2673 10.6828 11.4341C10.5579 11.6009 10.4935 11.8053 10.5005 12.0136C10.7572 16.7057 12.708 21.145 15.9904 24.507C19.3527 27.7913 23.7929 29.743 28.4857 29.9996C28.694 30.0061 28.8983 29.9416 29.0651 29.8167C29.2319 29.6918 29.3514 29.5139 29.4039 29.3122L30.4693 25.2753C30.5258 25.0625 30.5039 24.8365 30.4076 24.6386C30.3113 24.4406 30.147 24.2839 29.9448 24.197L24.8166 21.9985C24.649 21.9259 24.4634 21.905 24.2838 21.9386C24.1042 21.9721 23.9387 22.0585 23.8085 22.1867Z" fill="url(#paint1_linear_23703_6958)"/>
<defs>
<linearGradient id="paint0_linear_23703_6958" x1="40.5" y1="0" x2="0.5" y2="40" gradientUnits="userSpaceOnUse">
<stop stop-color="#3EBD93"/>
<stop offset="1" stop-color="#319488"/>
</linearGradient>
<linearGradient id="paint1_linear_23703_6958" x1="30.5" y1="10" x2="10.5" y2="30" gradientUnits="userSpaceOnUse">
<stop stop-color="#3EBD93"/>
<stop offset="1" stop-color="#319488"/>
</linearGradient>
</defs>
</svg>
